<svg width="300" height="309" viewBox="0 0 300 309" fill="none" xmlns="http://www.w3.org/2000/svg">
<circle cx="150" cy="150" r="149" fill="#031552" stroke="#7184B4" stroke-width="2"/>
<path d="M158 200C169.041 124.091 195.496 108.195 258 100V200H237V126C198.392 128.429 186.928 148.019 176 200H158Z" fill="#C9DFE7"/>
<path d="M158 200C169.041 124.091 195.496 108.195 258 100V200H237V126C198.392 128.429 186.928 148.019 176 200H158Z" fill="url(#paint0_linear)"/>
<path d="M158 200C169.041 124.091 195.496 108.195 258 100V200H237V126C198.392 128.429 186.928 148.019 176 200H158Z" stroke="#C9DFE7"/>
<path d="M208 200C196.959 124.091 170.504 108.196 108 100V200H129V126C167.608 128.43 179.072 148.019 190 200H208Z" fill="#7184B4" stroke="#7184B4"/>
<path d="M36 180.895C65.5307 181.328 77.9354 176.306 76 159H95V167.758C93.0581 198.943 75.1529 201.454 36 199.506V180.895Z" fill="#7184B4" stroke="#7184B4"/>
<path d="M96 120V101H36V150H96V129H56V120H96Z" fill="#C9DFE7"/>
<path d="M96 120V101H36V150H96V129H56V120H96Z" fill="url(#paint1_linear)"/>
<path d="M96 120V101H36V150H96V129H56V120H96Z" stroke="#C9DFE7"/>
<defs>
<linearGradient id="paint0_linear" x1="258" y1="100" x2="185" y2="158" gradientUnits="userSpaceOnUse">
<stop stop-color="#C9DFE7"/>
<stop offset="1" stop-color="#E5E5E5"/>
</linearGradient>
<linearGradient id="paint1_linear" x1="96" y1="101" x2="38.1974" y2="145.833" gradientUnits="userSpaceOnUse">
<stop stop-color="#C9DFE7"/>
<stop offset="0.897959" stop-color="#E5E5E5"/>
</linearGradient>
</defs>
</svg>
